<svg width="377" height="81.949" viewBox="0 0 390.185 84.815"><g fill="#7045af" transform="matrix(.45831 0 0 .45831 19.995 20)"><path d="M70.71 0a70.71 70.71 0 1 0 70.72 70.71A70.71 70.71 0 0 0 70.71 0Zm-5.38 104.09a2 2 0 0 1-2 2h-26a2 2 0 0 1-2-2v-26a2 2 0 0 1 2-2h26a2 2 0 0 1 2 2Zm0-40.76a2 2 0 0 1-2 2h-26a2 2 0 0 1-2-2v-26a2 2 0 0 1 2-2h26a2 2 0 0 1 2 2Zm40.77 40.76a2 2 0 0 1-2 2h-26a2 2 0 0 1-2-2v-26a2 2 0 0 1 2-2h26a2 2 0 0 1 2 2Zm0-40.76a2 2 0 0 1-2 2h-26a2 2 0 0 1-2-2v-26a2 2 0 0 1 2-2h26a2 2 0 0 1 2 2Z"/></g></svg>
