<svg width="377" height="81.949" viewBox="0 0 390.185 84.815"><g fill="#7045af" transform="matrix(.45831 0 0 .45831 19.995 20)"><path d="M70.71 0a70.71 70.71 0 1 0 70.72 70.71A70.71 70.71 0 0 0 70.71 0Zm-5.38 104.09a2 2 0 0 1-2 2h-26a2 2 0 0 1-2-2v-26a2 2 0 0 1 2-2h26a2 2 0 0 1 2 2Zm0-40.76a2 2 0 0 1-2 2h-26a2 2 0 0 1-2-2v-26a2 2 0 0 1 2-2h26a2 2 0 0 1 2 2Zm40.77 40.76a2 2 0 0 1-2 2h-26a2 2 0 0 1-2-2v-26a2 2 0 0 1 2-2h26a2 2 0 0 1 2 2Zm0-40.76a2 2 0 0 1-2 2h-26a2 2 0 0 1-2-2v-26a2 2 0 0 1 2-2h26a2 2 0 0 1 2 2Z"/></g><path fill="#fff" d="M126.06 53.047c-.223-4.046-2.051-6.429-6.263-6.429-1.164 0-2.162.167-2.993.499-2.55 1.164-3.491 3.325-3.491 5.985 0 .887.11 1.718.388 2.439.831 2.881 3.325 3.934 6.096 3.934 4.212 0 6.262-2.272 6.262-6.428zm10.529 13.855h-8.313c-.554-1.386-1.053-2.771-1.386-4.212-1.884 3.103-4.766 4.489-8.312 4.489-7.925 0-13.578-6.65-13.578-14.243 0-8.756 6.54-14.021 14.797-14.021 8.811 0 14.353 5.653 14.575 14.132.055.72.055 1.552.055 2.55 0 3.878.61 7.758 2.162 11.305zm2.05-.887v-7.759c3.658 1.109 8.258 1.33 12.026 1.33 1.496 0 2.66-.055 3.491-.221.776-.111 1.164-.388 1.164-.776 0-.167-.055-.277-.166-.444-.554-.554-1.773-.83-2.494-.997s-1.662-.388-2.826-.61a87.652 87.652 0 0 1-3.325-.665c-4.323-.942-7.648-3.38-7.648-8.036 0-6.871 6.706-8.922 12.358-8.922 3.547 0 7.094.499 10.585 1.22v7.813c-3.491-1.053-7.426-1.33-11.083-1.33-1.441 0-2.439.056-3.049.222s-.942.443-.942.776c0 .499.5.831 1.441.997.942.222 2.272.5 3.88.776 1.44.277 2.826.554 4.156.887 4.101 1.053 7.038 3.27 7.038 7.703 0 7.426-7.481 9.255-13.467 9.255-3.768 0-7.481-.499-11.139-1.22zm36.854-12.968c0 4.1 2.05 6.428 6.207 6.428 1.163 0 2.216-.166 3.048-.554 1.551-.61 2.604-1.773 3.159-3.38.221-.776.332-1.607.332-2.494s-.11-1.718-.332-2.494c-.61-1.718-1.552-2.66-3.16-3.436-.83-.332-1.884-.499-3.047-.499-4.157 0-6.207 2.328-6.207 6.429zm0 11.084v13.854h-8.313V53.047c0-8.867 6.262-14.132 14.63-14.132 8.535 0 14.742 5.597 14.742 14.076 0 7.87-5.93 14.188-13.8 14.188-1.607 0-2.992-.277-4.156-.832a8.38 8.38 0 0 1-3.103-2.216zm24.661-24.939h8.313v27.71h-8.313v-27.71zm4.156-2.605c-2.826 0-4.82-1.995-4.82-4.821 0-2.882 1.994-4.766 4.82-4.766 2.882 0 4.767 1.884 4.767 4.766 0 2.937-1.83 4.821-4.767 4.821zm18.289 16.46v13.855h-8.313v-13.8c0-9.2 6.761-14.187 15.295-14.187.278 0 .665 0 1.053.055s.832.167 1.22.222v8.036c-.277-.056-.61-.111-.998-.166s-.72-.111-.997-.111c-1.386 0-2.494.166-3.436.443-1.552.554-2.938 1.607-3.436 3.27-.277.72-.388 1.552-.388 2.383zm19.507-3.325c.831.277 1.774.498 2.771.61.998.166 1.94.221 2.826.221 1.109 0 3.935-.222 3.935-1.829 0-1.718-2.438-1.773-3.657-1.773-2.439 0-4.545.554-5.875 2.77zm15.684 8.534v7.759c-3.104.72-6.207 1.22-9.422 1.22-8.811 0-15.35-5.155-15.35-14.077 0-8.812 6.317-14.243 14.685-14.243 5.709 0 12.303 2.716 12.303 9.2 0 6.428-6.982 8.811-12.358 8.811-2.05 0-4.101-.554-5.985-1.33 1.108 3.104 4.433 3.602 7.315 3.602 1.496 0 2.993-.055 4.489-.277 1.385-.11 2.993-.277 4.323-.665zm26.822-5.21c0 4.102 2.05 6.43 6.207 6.43 1.164 0 2.217-.167 3.048-.555 1.552-.61 2.605-1.773 3.16-3.38.22-.776.332-1.607.332-2.494s-.111-1.718-.333-2.494c-.61-1.718-1.552-2.66-3.159-3.436-.831-.332-1.884-.499-3.048-.499-4.156 0-6.207 2.328-6.207 6.429zM276.3 28.109h8.312v13.855c1.885-2.161 4.434-3.048 7.26-3.048 8.091 0 13.8 6.484 13.8 14.243 0 8.756-6.485 14.02-14.742 14.02-8.59 0-14.63-5.652-14.63-14.131V28.108zm46.33 31.367c4.045 0 6.373-2.383 6.373-6.428s-2.328-6.429-6.373-6.429-6.374 2.383-6.374 6.429 2.328 6.428 6.374 6.428zm0 7.704c-8.535 0-14.686-5.653-14.686-14.132 0-8.756 6.373-14.132 14.686-14.132 8.59 0 14.686 5.653 14.686 14.132 0 8.7-6.429 14.132-14.686 14.132zm31.7-7.704c4.045 0 6.372-2.383 6.372-6.428s-2.327-6.429-6.373-6.429-6.373 2.383-6.373 6.429 2.328 6.428 6.373 6.428zm0 7.704c-8.535 0-14.687-5.653-14.687-14.132 0-8.756 6.373-14.132 14.686-14.132 8.59 0 14.686 5.653 14.686 14.132 0 8.7-6.428 14.132-14.686 14.132zm34.248-27.045v7.703h-7.759v5.21c0 4.267 2.827 6.428 6.928 6.428.499 0 .942-.055 1.33-.11s.72-.111 1.108-.167v7.704c-.499.055-.887.166-1.164.221-.332.056-.886.056-1.607.056-8.368 0-14.907-5.709-14.907-14.132V32.542h8.312v7.592h7.759z"/></svg>
