<svg width="182.569" height="146.512" viewBox="0 0 200 160.501"><g fill="#fff"><path xmlns="http://www.w3.org/2000/svg" d="M119.743 0v17.353c34.684 0 62.904 28.207 62.904 62.891 0 34.697-28.22 62.903-62.904 62.903v17.354C164 160.5 200 124.488 200 80.244S164 0 119.743 0z"/><path xmlns="http://www.w3.org/2000/svg" d="M159.368 80.244c0-21.857-17.78-39.63-39.625-39.63v17.352c12.288 0 22.271 10 22.271 22.275 0 12.288-9.98 22.287-22.27 22.287v17.353c21.843.007 39.624-17.767 39.624-39.637zM0 45.547v69.407h30.579l64.22 45.547V0l-64.22 45.547z"/></g></svg>