<svg width="222" height="75.283" viewBox="0 0 255.667 86.7"><path fill="#fff" d="M102.774 66H114.2l-1.594 11.82h-8.135l-1.2 8.88H100zm6.996 8.59.725-5.34h-4.865l-.724 5.34h4.864zm5.598-8.59h11.426l-.434 3.25h-4.12l-2.36 17.45h-3.27l2.34-17.45h-4.017zm23.424 9.895v.041l1.407 1.449-1.242 9.315h-11.426l2.774-20.7h11.426l-1.076 8.073zm-2.671 7.555.745-5.63h-4.864l-.766 5.63h4.885zm1.18-8.86.725-5.34h-4.865l-.724 5.34h4.864zm16.424 1.305v.041l1.407 1.449-1.241 9.315h-3.292l1.2-8.88h-4.864l-1.2 8.88h-3.27l2.773-20.7h11.426l-1.076 8.073zm-1.49-1.304.724-5.34h-4.865l-.724 5.34h4.864zM4.824 0h19.872l-4.824 36h-5.724L18.25 5.652h-1.476l-1.98 14.904H9.071l2.017-14.904H9.792L5.688 36H0zM49.91 5.652H35.763l-1.26 9.288h14.148l-.756 5.616H33.747l-1.332 9.792H46.6l-.756 5.651H25.972L30.796 0h19.871zM52.698 0H72.57l-.756 5.652H64.65L60.546 36H54.86l4.068-30.348h-6.984zm25.976 0h19.872l-4.824 36h-5.724l2.088-15.444h-8.46L79.538 36H73.85zm12.168 14.94 1.26-9.287h-8.46l-1.259 9.287h8.46zM104.645 0h19.872l-2.772 20.556h-14.148L105.51 36h-5.687zm12.168 14.94 1.26-9.287h-8.46l-1.26 9.287h8.46zM144.8 0h5.688l-4.824 36h-5.724l2.088-15.444h-8.46L131.48 36h-5.688l4.824-36h5.724l-2.016 14.94h8.46z"/><g fill="#fff"><path xmlns="http://www.w3.org/2000/svg" d="M181.858 0v3.892c7.78 0 14.11 6.327 14.11 14.107 0 7.782-6.33 14.109-14.11 14.109V36c9.927 0 18.002-8.078 18.002-18.001S191.785 0 181.858 0z"/><path xmlns="http://www.w3.org/2000/svg" d="M190.746 17.999c0-4.903-3.988-8.89-8.888-8.89v3.893a5.001 5.001 0 0 1 4.996 4.996 5.001 5.001 0 0 1-4.996 4.999v3.892c4.9.002 8.888-3.985 8.888-8.89zM155 10.216v15.568h6.859L176.263 36V0l-14.404 10.216z"/></g><path fill="#fff" d="m229.696 0-4.824 35.856.036.144h-5.796l-5.508-21.672L210.688 36H205l4.824-36h5.975l5.364 21.168L224.008 0h5.688zm25.215 5.652h-14.148l-1.26 9.288h14.148l-.756 5.616h-14.148l-1.332 9.792H251.6L250.843 36h-19.871l4.824-36h19.871z"/></svg>