<svg width="240.5" height="45.5" viewBox="0 0 370 70"><g fill="#47abff" transform="translate(-7.104 -6.327) scale(.83582)"><path xmlns="http://www.w3.org/2000/svg" d="M13.5 91.32h73.75a5 5 0 0 0 5-5V12.57a5 5 0 0 0-5-5H13.5a5 5 0 0 0-5 5v73.75a5 5 0 0 0 5 5ZM53 64.18h26.5a3 3 0 0 1 0 6H53a3 3 0 0 1 0-6ZM21.13 31.83a3 3 0 0 1 4.24-4.24l18.74 18.73a3 3 0 0 1 0 4.24L25.37 69.3a3 3 0 0 1-4.24-4.24l16.62-16.62Z"/></g><path fill="#fff" d="M103.254 56.924C95.203 56.924 90 51.337 90 43.068c0-9.53 5.641-17.252 15.883-17.252 5.805 0 9.967 3.176 9.967 8.324 0 3.725-2.136 6.025-5.64 6.025-1.425 0-2.027-.22-2.63-.712.055-.274.11-.931.11-1.534 0-2.848-.931-4.436-2.793-4.436-2.739 0-5.148 3.341-5.148 9.037 0 4.217 1.862 6.791 5.367 6.791 2.136 0 4.765-1.37 6.572-3.615 1.534.439 2.629 2.027 2.629 3.889 0 3.779-4.491 7.339-11.063 7.339zm34.777-31.108c3.122 0 5.422 1.917 5.422 5.203 0 3.395-2.08 6.188-5.203 6.736-.328-1.424-1.15-2.574-3.23-2.574-1.918 0-3.56.876-4.108 6.517l-1.15 13.802c-.713.657-2.027 1.04-3.834 1.04-3.67 0-5.915-1.533-5.532-6.188l1.04-14.076c.165-2.3-.876-3.176-2.683-3.176-1.588-4.327 1.424-7.34 5.203-7.34 3.67 0 6.08 1.808 7.01 5.04h.329c1.479-2.958 4.108-4.984 6.736-4.984zm14.788-3.341c-2.848 0-5.258-1.15-5.258-4.327 0-3.231 2.52-5.148 6.189-5.148 3.286 0 5.148 1.588 5.148 4.327 0 2.848-1.972 5.148-6.08 5.148zm2.848 24.098c-.165 2.355.821 3.176 2.683 3.176 1.534 4.382-1.424 7.34-5.257 7.34-5.149 0-7.777-3.506-7.394-9.53l1.533-20.155c.493-.329 2.355-1.04 4.437-1.04 3.505 0 5.367 2.026 5.148 5.093zm23.988-15.664c-.329 6.846 10.406 7.832 10.406 16.76 0 5.969-4.874 9.255-11.94 9.255-5.148 0-7.557-1.643-8.543-3.67-.329.439-.712.877-1.04 1.26-.877.986-2.082 2.026-4.273 2.026-2.793 0-4.82-1.697-4.71-3.998 6.572-9.146 10.844-15.828 11.556-25.193 1.479-.986 2.958-1.533 4.655-1.533 2.739 0 4.218 1.424 3.889 5.093zm-3.286 19.388c2.738 0 4.162-1.26 4.162-3.286 0-2.574-2.464-4.327-4.545-6.737-.986 3.067-2.191 6.025-3.615 8.654.767.821 2.19 1.369 3.998 1.369zm37.078-24.481c5.312 0 9.858 3.505 9.858 13.363 0 10.46-5.039 17.745-13.035 17.745-3.888 0-5.97-1.479-6.572-4.163h-.329l-.219 3.341c-.438.329-2.3 1.04-4.272 1.04-3.395 0-5.476-2.08-5.202-4.983l2.574-35.16c.493-.33 2.464-1.042 4.436-1.042 3.395 0 5.258 2.027 5.038 4.875l-.712 9.858h.274c1.37-3.177 4.546-4.874 8.16-4.874zM207.64 49.53c3.396 0 5.587-3.34 5.587-9.694 0-4.545-1.534-6.408-4.163-6.408-2.355 0-4.053 1.48-4.71 6.463l-.383 4.765c-.055 3.122 1.04 4.874 3.67 4.874zm38.557-23.714c3.122 0 5.422 1.917 5.422 5.203 0 3.395-2.081 6.188-5.203 6.736-.329-1.424-1.15-2.574-3.231-2.574-1.917 0-3.56.876-4.108 6.517l-1.15 13.802c-.712.657-2.026 1.04-3.834 1.04-3.67 0-5.915-1.533-5.531-6.188l1.04-14.076c.165-2.3-.876-3.176-2.683-3.176-1.589-4.327 1.424-7.34 5.203-7.34 3.669 0 6.079 1.808 7.01 5.04h.328c1.48-2.958 4.108-4.984 6.737-4.984zm37.735 23.988c1.588 4.381-1.424 7.339-5.258 7.339s-6.243-1.917-7.12-5.367h-.273c-1.589 3.67-4.82 5.148-8.49 5.148-5.421 0-9.912-3.396-9.912-13.309 0-10.406 4.929-17.8 12.87-17.8 4.6 0 6.189 2.41 6.736 4.327h.22l.219-2.738c.438-.329 2.41-1.04 4.381-1.04 3.396 0 5.422 2.08 5.148 4.928l-1.205 15.335c-.164 2.3.822 3.177 2.684 3.177zm-17.252-.274c2.465 0 4.491-1.917 5.094-6.243l.273-3.725c.165-5.312-1.478-6.298-3.395-6.298-3.45 0-5.915 2.958-5.915 9.64 0 4.71 1.424 6.626 3.943 6.626zm51.81.274c1.589 4.381-1.423 7.339-5.257 7.339s-6.244-1.917-7.12-5.367h-.274c-1.588 3.67-4.82 5.148-8.489 5.148-5.422 0-9.913-3.396-9.913-13.309 0-10.406 4.93-17.8 12.87-17.8 4.601 0 6.19 2.41 6.737 4.327h.22l.218-2.738c.438-.329 2.41-1.04 4.382-1.04 3.395 0 5.422 2.08 5.148 4.928l-1.205 15.335c-.164 2.3.821 3.177 2.683 3.177zm-17.251-.274c2.464 0 4.49-1.917 5.093-6.243l.274-3.725c.164-5.312-1.479-6.298-3.396-6.298-3.45 0-5.915 2.958-5.915 9.64 0 4.71 1.424 6.626 3.944 6.626zm34.449-15.39-1.096 11.995c-.219 2.245.931 3.505 2.574 3.505 1.26 0 2.081-.384 2.958-.986 1.095.548 1.862 1.698 1.862 3.122-.055 3.286-2.793 5.312-7.996 5.312-6.956 0-9.64-4.984-9.146-10.515l1.15-12.433h-3.944c-.383-.657-.602-1.807-.602-2.902.055-2.793 2.245-4.327 4.272-4.327h.93l.713-7.448c.493-.384 2.3-1.041 4.49-1.041 3.177 0 5.149 1.424 4.875 4.655l-.328 3.834h6.626c.439.931.658 2.136.658 2.903-.055 2.683-2.465 4.326-4.108 4.326h-3.888zm19.661 14.623h12.268c.767 1.424.986 2.355.986 3.67 0 2.355-1.643 4.107-4.108 4.107h-20.209c-.767-3.23-.438-5.312 2.958-9.2l11.5-13.145H347.19c-.712-1.314-.931-2.3-.931-3.615 0-2.683 1.971-4.217 4.053-4.217h19.442c.767 4.163-.164 5.97-4.162 10.625z"/></svg>