<?xml version="1.0" standalone="no"?>
<!DOCTYPE svg PUBLIC "-//W3C//DTD SVG 20010904//EN"
 "http://www.w3.org/TR/2001/REC-SVG-20010904/DTD/svg10.dtd">
<svg version="1.0" xmlns="http://www.w3.org/2000/svg"
 width="700.000000pt" height="700.000000pt" viewBox="0 0 700.000000 700.000000"
 preserveAspectRatio="xMidYMid meet">
<metadata>
Created by potrace 1.14, written by Peter Selinger 2001-2017
</metadata>
<g transform="translate(0.000000,700.000000) scale(0.100000,-0.100000)"
fill="#000000" stroke="none">
<path d="M330 6993 c-45 -9 -144 -60 -187 -97 -56 -49 -100 -117 -123 -194
-20 -63 -20 -106 -20 -3206 l0 -3142 21 -63 c41 -119 131 -216 246 -262 l58
-24 3175 0 3175 0 58 24 c117 47 210 147 247 268 20 65 20 88 20 3209 l0 3143
-24 66 c-51 142 -150 234 -291 271 -41 11 -601 14 -3190 12 -1727 0 -3151 -3
-3165 -5z m1024 -1629 c50 -26 1642 -1618 1668 -1667 29 -58 34 -125 13 -192
-18 -56 -37 -76 -833 -872 -834 -834 -844 -843 -932 -857 -48 -7 -127 12 -172
41 -93 62 -134 203 -88 305 17 38 164 191 725 752 388 388 705 707 705 709 0
3 -317 321 -704 708 -387 387 -711 720 -721 739 -27 52 -32 151 -10 203 36 81
101 136 184 152 63 13 113 7 165 -21z m4698 -3126 c58 -35 105 -91 120 -143
36 -131 -20 -252 -142 -308 -45 -20 -58 -20 -1191 -21 -909 0 -1155 3 -1192
13 -92 26 -164 114 -174 215 -12 122 59 226 182 268 11 3 544 5 1185 5 l1165
-2 47 -27z"/>
</g>
</svg>
